<?xml version="1.0" encoding="utf-8"?>
<!-- Generator: Adobe Illustrator 17.1.0, SVG Export Plug-In . SVG Version: 6.00 Build 0)  -->
<!DOCTYPE svg PUBLIC "-//W3C//DTD SVG 1.1//EN" "http://www.w3.org/Graphics/SVG/1.1/DTD/svg11.dtd">
<svg version="1.1" id="vectorportal.com" xmlns="http://www.w3.org/2000/svg" xmlns:xlink="http://www.w3.org/1999/xlink" x="0px"
	 y="0px" viewBox="0 0 300 178.9" enable-background="new 0 0 300 178.9" xml:space="preserve">
<g>
	<line fill="#FFFFFF" stroke="#FFFFFF" stroke-width="3.7892" stroke-miterlimit="10" x1="16.8" y1="154.8" x2="16.8" y2="7.3"/>
	<line fill="#FFFFFF" stroke="#FFFFFF" stroke-width="1.741" stroke-miterlimit="10" x1="21.9" y1="154.8" x2="21.9" y2="7.3"/>
	<line fill="#FFFFFF" stroke="#FFFFFF" stroke-width="5.8374" stroke-miterlimit="10" x1="30.1" y1="154.8" x2="30.1" y2="7.3"/>
	<line fill="#FFFFFF" stroke="#FFFFFF" stroke-width="7.8856" stroke-miterlimit="10" x1="41.4" y1="154.8" x2="41.4" y2="7.3"/>
	<line fill="#FFFFFF" stroke="#FFFFFF" stroke-width="1.741" stroke-miterlimit="10" x1="48.5" y1="154.8" x2="48.5" y2="7.3"/>
	<line fill="#FFFFFF" stroke="#FFFFFF" stroke-width="5.8374" stroke-miterlimit="10" x1="54.7" y1="154.8" x2="54.7" y2="7.3"/>
	<path fill="#FFFFFF" stroke="#FFFFFF" stroke-width="3.7892" stroke-miterlimit="10" d="M61.8,154.8V7.3 M70,154.8V7.3 M76.2,154.8
		V7.3"/>
	<path fill="#FFFFFF" stroke="#FFFFFF" stroke-width="1.741" stroke-miterlimit="10" d="M83.3,154.8V7.3 M89.5,154.8V7.3"/>
	<line fill="#FFFFFF" stroke="#FFFFFF" stroke-width="3.7892" stroke-miterlimit="10" x1="98.7" y1="154.8" x2="98.7" y2="7.3"/>
	<line fill="#FFFFFF" stroke="#FFFFFF" stroke-width="5.8374" stroke-miterlimit="10" x1="107.9" y1="154.8" x2="107.9" y2="7.3"/>
	<line fill="#FFFFFF" stroke="#FFFFFF" stroke-width="7.8856" stroke-miterlimit="10" x1="117.1" y1="154.8" x2="117.1" y2="7.3"/>
	<path fill="#FFFFFF" stroke="#FFFFFF" stroke-width="1.741" stroke-miterlimit="10" d="M124.3,154.8V7.3 M128.4,154.8V7.3"/>
	<line fill="#FFFFFF" stroke="#FFFFFF" stroke-width="3.7892" stroke-miterlimit="10" x1="133.5" y1="154.8" x2="133.5" y2="7.3"/>
	<line fill="#FFFFFF" stroke="#FFFFFF" stroke-width="5.8374" stroke-miterlimit="10" x1="142.7" y1="154.8" x2="142.7" y2="7.3"/>
	<path fill="#FFFFFF" stroke="#FFFFFF" stroke-width="1.741" stroke-miterlimit="10" d="M150.9,154.8V7.3 M159.1,154.8V7.3"/>
	<line fill="#FFFFFF" stroke="#FFFFFF" stroke-width="3.7892" stroke-miterlimit="10" x1="164.2" y1="154.8" x2="164.2" y2="7.3"/>
	<line fill="#FFFFFF" stroke="#FFFFFF" stroke-width="5.8374" stroke-miterlimit="10" x1="175.5" y1="154.8" x2="175.5" y2="7.3"/>
	<line fill="#FFFFFF" stroke="#FFFFFF" stroke-width="1.741" stroke-miterlimit="10" x1="185.8" y1="154.8" x2="185.8" y2="7.3"/>
	<path fill="#FFFFFF" stroke="#FFFFFF" stroke-width="3.7892" stroke-miterlimit="10" d="M190.9,154.8V7.3 M197,154.8V7.3"/>
	<path fill="#FFFFFF" stroke="#FFFFFF" stroke-width="1.741" stroke-miterlimit="10" d="M208.3,154.8V7.3 M212.4,154.8V7.3
		 M218.5,154.8V7.3 M222.6,154.8V7.3"/>
	<line fill="#FFFFFF" stroke="#FFFFFF" stroke-width="7.8856" stroke-miterlimit="10" x1="233.9" y1="154.8" x2="233.9" y2="7.3"/>
	<path fill="#FFFFFF" stroke="#FFFFFF" stroke-width="1.741" stroke-miterlimit="10" d="M241.1,154.8V7.3 M247.2,154.8V7.3"/>
	<path fill="#FFFFFF" stroke="#FFFFFF" stroke-width="3.7892" stroke-miterlimit="10" d="M254.4,154.8V7.3 M264.6,154.8V7.3"/>
	<line fill="#FFFFFF" stroke="#FFFFFF" stroke-width="5.8374" stroke-miterlimit="10" x1="275.9" y1="154.8" x2="275.9" y2="7.3"/>
	<line fill="#FFFFFF" stroke="#FFFFFF" stroke-width="1.741" stroke-miterlimit="10" x1="282" y1="154.8" x2="282" y2="7.3"/>
	<line fill="#FFFFFF" stroke="#FFFFFF" stroke-width="3.7892" stroke-miterlimit="10" x1="287.1" y1="154.8" x2="287.1" y2="7.3"/>
</g>
<g>
	<path fill="#FFFFFF" d="M58,157.3c-1.7,2.3-2.9,5.2-2.9,9.4c0,4.1,1.3,7,2.9,9.3h-1.6c-1.4-1.9-3-4.8-3-9.3c0-4.5,1.6-7.4,3-9.4H58
		z"/>
	<path fill="#FFFFFF" d="M64.2,173.4c-2.9,0-4.9-2.7-4.9-7.6c0-5,2.2-7.7,5.2-7.7c3.1,0,4.9,2.8,4.9,7.5
		C69.4,170.6,67.5,173.4,64.2,173.4L64.2,173.4z M64.3,171.8c2,0,3-2.4,3-6.2c0-3.7-0.9-6.1-3-6.1c-1.8,0-3,2.3-3,6.1
		C61.3,169.5,62.5,171.8,64.3,171.8L64.3,171.8z"/>
	<path fill="#FFFFFF" d="M75.6,160.2L75.6,160.2l-2.6,1.4l-0.4-1.5l3.2-1.7h1.7v14.9h-1.9V160.2z"/>
	<path fill="#FFFFFF" d="M82.4,175.9c1.6-2.3,2.9-5.2,2.9-9.3c0-4.1-1.2-7-2.9-9.3H84c1.4,1.9,3,4.8,3,9.3c0,4.5-1.6,7.4-3,9.3H82.4
		z"/>
	<path fill="#FFFFFF" d="M94.2,173.4c-2.9,0-4.9-2.7-4.9-7.6c0-5,2.2-7.7,5.2-7.7c3.1,0,4.9,2.8,4.9,7.5
		C99.4,170.6,97.5,173.4,94.2,173.4L94.2,173.4z M94.3,171.8c2,0,3-2.4,3-6.2c0-3.7-0.9-6.1-3-6.1c-1.8,0-3,2.3-3,6.1
		C91.2,169.5,92.4,171.8,94.3,171.8L94.3,171.8z"/>
	<path fill="#FFFFFF" d="M107.4,173.1v-4h-6.9v-1.3l6.6-9.5h2.2v9.3h2.1v1.6h-2.1v4H107.4z M107.4,167.5v-5c0-0.8,0-1.6,0.1-2.3
		h-0.1c-0.5,0.9-0.8,1.5-1.2,2.2l-3.6,5.1v0H107.4z"/>
	<path fill="#FFFFFF" d="M121.4,159.7c-0.4,0-0.9,0-1.5,0.1c-3.2,0.5-4.8,2.8-5.2,5.3h0c0.7-1,2-1.7,3.6-1.7c2.6,0,4.5,1.9,4.5,4.8
		c0,2.7-1.9,5.3-5,5.3c-3.2,0-5.2-2.5-5.2-6.3c0-2.9,1-5.2,2.5-6.7c1.2-1.2,2.9-2,4.8-2.2c0.6-0.1,1.1-0.1,1.5-0.1V159.7z
		 M118,171.8c1.7,0,2.9-1.4,2.9-3.6c0-2.1-1.2-3.4-3.1-3.4c-1.2,0-2.4,0.7-2.9,1.8c-0.1,0.2-0.2,0.5-0.2,0.9
		C114.7,170,115.8,171.8,118,171.8L118,171.8z"/>
	<path fill="#FFFFFF" d="M129.4,173.4c-2.9,0-4.9-2.7-4.9-7.6c0-5,2.2-7.7,5.2-7.7c3.1,0,4.9,2.8,4.9,7.5
		C134.6,170.6,132.7,173.4,129.4,173.4L129.4,173.4z M129.5,171.8c2,0,3-2.4,3-6.2c0-3.7-0.9-6.1-3-6.1c-1.8,0-3,2.3-3,6.1
		C126.4,169.5,127.6,171.8,129.5,171.8L129.5,171.8z"/>
	<path fill="#FFFFFF" d="M140.8,160.2L140.8,160.2l-2.6,1.4l-0.4-1.5l3.2-1.7h1.7v14.9h-1.9V160.2z"/>
	<path fill="#FFFFFF" d="M148.1,173.1v-1.2l1.6-1.5c3.8-3.6,5.5-5.5,5.5-7.8c0-1.5-0.7-2.9-2.9-2.9c-1.3,0-2.5,0.7-3.2,1.3l-0.6-1.4
		c1-0.8,2.5-1.5,4.2-1.5c3.2,0,4.5,2.2,4.5,4.3c0,2.7-2,5-5.1,8l-1.2,1.1v0h6.7v1.7H148.1z"/>
	<path fill="#FFFFFF" d="M160.3,170.9c0.6,0.3,1.9,0.9,3.3,0.9c2.6,0,3.4-1.6,3.4-2.9c0-2.1-1.9-3-3.8-3H162v-1.5h1.1
		c1.5,0,3.3-0.8,3.3-2.5c0-1.2-0.8-2.2-2.6-2.2c-1.2,0-2.3,0.5-3,1l-0.5-1.5c0.8-0.6,2.3-1.1,3.9-1.1c2.9,0,4.3,1.7,4.3,3.5
		c0,1.6-0.9,2.9-2.7,3.5v0c1.8,0.3,3.3,1.7,3.3,3.8c0,2.4-1.9,4.5-5.4,4.5c-1.7,0-3.1-0.5-3.9-1L160.3,170.9z"/>
	<path fill="#FFFFFF" d="M177.8,173.1v-4h-6.9v-1.3l6.6-9.5h2.2v9.3h2.1v1.6h-2.1v4H177.8z M177.8,167.5v-5c0-0.8,0-1.6,0.1-2.3
		h-0.1c-0.5,0.9-0.8,1.5-1.2,2.2l-3.6,5.1v0H177.8z"/>
	<path fill="#FFFFFF" d="M192.2,160h-5.7l-0.6,3.8c0.3,0,0.7-0.1,1.2-0.1c1.2,0,2.3,0.3,3.2,0.8c1.2,0.6,2.1,1.9,2.1,3.9
		c0,2.9-2.3,5.1-5.5,5.1c-1.6,0-3-0.5-3.7-0.9l0.5-1.5c0.6,0.4,1.8,0.8,3.2,0.8c1.9,0,3.5-1.2,3.5-3.2c0-2-1.3-3.3-4.3-3.3
		c-0.9,0-1.5,0.1-2.1,0.2l1-7.1h7.1V160z"/>
	<path fill="#FFFFFF" d="M203.5,159.7c-0.4,0-0.9,0-1.5,0.1c-3.2,0.5-4.8,2.8-5.2,5.3h0c0.7-1,2-1.7,3.6-1.7c2.6,0,4.5,1.9,4.5,4.8
		c0,2.7-1.9,5.3-5,5.3c-3.2,0-5.2-2.5-5.2-6.3c0-2.9,1-5.2,2.5-6.7c1.2-1.2,2.9-2,4.8-2.2c0.6-0.1,1.1-0.1,1.5-0.1V159.7z
		 M200.1,171.8c1.7,0,2.9-1.4,2.9-3.6c0-2.1-1.2-3.4-3.1-3.4c-1.2,0-2.4,0.7-2.9,1.8c-0.1,0.2-0.2,0.5-0.2,0.9
		C196.8,170,198,171.8,200.1,171.8L200.1,171.8z"/>
	<path fill="#FFFFFF" d="M216.4,158.3v1.3l-6.5,13.5h-2.1l6.4-13.2v0h-7.3v-1.7H216.4z"/>
	<path fill="#FFFFFF" d="M223.5,158c2.9,0,4.3,1.8,4.3,3.7c0,1.3-0.6,2.6-2.5,3.5v0.1c1.9,0.7,3,2.1,3,3.8c0,2.6-2.2,4.3-5.1,4.3
		c-3.1,0-5-1.8-5-4c0-1.9,1.1-3.2,2.9-4v-0.1c-1.7-0.8-2.4-2.1-2.4-3.3C218.9,159.6,220.9,158,223.5,158L223.5,158z M223.4,171.9
		c1.8,0,3-1.1,3-2.7c0-1.8-1.3-2.7-3.3-3.2c-1.7,0.5-2.7,1.7-2.7,3.1C220.4,170.6,221.5,171.9,223.4,171.9L223.4,171.9z
		 M223.4,159.5c-1.7,0-2.6,1.1-2.6,2.4c0,1.5,1.1,2.3,2.8,2.7c1.3-0.4,2.3-1.3,2.3-2.7C226,160.7,225.2,159.5,223.4,159.5
		L223.4,159.5z"/>
	<path fill="#FFFFFF" d="M231.4,171.7c0.4,0,0.9,0,1.6-0.1c1.2-0.1,2.3-0.6,3.1-1.4c1-0.9,1.7-2.2,2-4h-0.1c-0.8,1-2,1.6-3.5,1.6
		c-2.7,0-4.4-2-4.4-4.6c0-2.8,2.1-5.3,5.1-5.3c3,0,4.9,2.4,4.9,6.3c0,3.3-1.1,5.6-2.6,7c-1.1,1.1-2.7,1.8-4.3,2
		c-0.7,0.1-1.4,0.1-1.9,0.1V171.7z M235.1,159.6c-1.7,0-2.9,1.5-2.9,3.6c0,1.9,1.1,3.2,2.9,3.2c1.3,0,2.4-0.7,3-1.6
		c0.1-0.2,0.2-0.4,0.2-0.7C238.1,161.5,237.2,159.6,235.1,159.6L235.1,159.6z"/>
	<path fill="#FFFFFF" d="M242.5,170.9c0.6,0.3,1.9,0.9,3.3,0.9c2.6,0,3.4-1.6,3.4-2.9c0-2.1-1.9-3-3.8-3h-1.1v-1.5h1.1
		c1.5,0,3.3-0.8,3.3-2.5c0-1.2-0.8-2.2-2.6-2.2c-1.2,0-2.3,0.5-3,1l-0.5-1.5c0.8-0.6,2.3-1.1,3.9-1.1c2.9,0,4.3,1.7,4.3,3.5
		c0,1.6-0.9,2.9-2.7,3.5v0c1.8,0.3,3.3,1.7,3.3,3.8c0,2.4-1.9,4.5-5.4,4.5c-1.7,0-3.1-0.5-3.9-1L242.5,170.9z"/>
</g>
</svg>
