<?xml version="1.0" encoding="utf-8"?>
<!-- Generator: Adobe Illustrator 17.1.0, SVG Export Plug-In . SVG Version: 6.00 Build 0)  -->
<!DOCTYPE svg PUBLIC "-//W3C//DTD SVG 1.1//EN" "http://www.w3.org/Graphics/SVG/1.1/DTD/svg11.dtd">
<svg version="1.1" id="Layer_1" xmlns="http://www.w3.org/2000/svg" xmlns:xlink="http://www.w3.org/1999/xlink" x="0px" y="0px"
	 viewBox="0 0 300 100" enable-background="new 0 0 300 100" xml:space="preserve">
<path fill="#FFFFFF" d="M4.2,47.8c-0.3,0-0.4-0.3-0.4-0.8v-0.4c0-0.2,0-0.3,0-0.4l6.5-37c0.2-1,0.5-1.4,1-1.4h4.3
	c0.5,0,0.8,0.5,1,1.4l6.3,37c0,0.1,0,0.2,0.1,0.4c0,0.2,0.1,0.3,0.1,0.4c0,0.5-0.1,0.8-0.4,0.8h-3.5c-0.5,0-0.8-0.4-0.9-1.3L17.2,39
	c-0.1-0.3-0.2-0.5-0.3-0.5H9.3c-0.1,0-0.1,0.2-0.2,0.5l-1.3,7.5c-0.1,0.5-0.2,0.8-0.3,1c-0.1,0.2-0.3,0.3-0.5,0.3H4.2z M10.1,35.6
	h6.5c0.1,0,0.1-0.1,0.1-0.4c0-0.1,0-0.2-0.1-0.2l-3.2-22.2l-0.1-0.2c-0.1,0-0.1,0-0.1,0.1L9.8,34.9c0,0.1,0,0.2,0,0.3
	C9.7,35.5,9.9,35.6,10.1,35.6z"/>
<path fill="#FFFFFF" d="M28.2,47.8c-0.2,0-0.4-0.1-0.5-0.2c-0.1-0.2-0.2-0.5-0.2-1V9c0-0.4,0-0.7,0.1-0.9c0.1-0.2,0.1-0.3,0.2-0.4
	c0.1,0,0.2-0.1,0.3-0.1h8.5c0.9,0,1.6,0,2.3,0.1c0.6,0,1.3,0.2,2.1,0.3c0.7,0.2,1.4,0.4,1.9,0.7c0.5,0.3,1,0.7,1.5,1.2
	c0.5,0.5,0.9,1.1,1.2,1.9c0.3,0.7,0.6,1.6,0.7,2.6c0.2,1,0.3,2.2,0.3,3.5c0,1.8-0.2,3.3-0.6,4.6c-0.4,1.2-0.9,2.1-1.5,2.7
	c-0.6,0.6-1.4,1.1-2.3,1.5c-0.1,0.1-0.1,0.1-0.1,0.2c0,0.1,0,0.1,0.1,0.1c0.6,0.3,1,0.5,1.3,0.7c0.3,0.2,0.7,0.5,1.1,1
	c0.4,0.4,0.8,0.9,1,1.5c0.2,0.5,0.5,1.3,0.7,2.2c0.2,0.9,0.3,2,0.3,3.2c0,1,0.1,4.5,0.1,10.6c0,1-0.2,1.4-0.6,1.4
	c-2.2,0-3.3,0-3.3,0c-0.4,0-0.5-0.5-0.5-1.4c0-0.2-0.1-2.2-0.1-6.2c-0.1-4-0.1-6.2-0.2-6.6c-0.1-3-1.7-4.6-4.6-4.6h-5
	c-0.2,0-0.3,0.2-0.3,0.5v17c0,0.5-0.1,0.8-0.2,1c-0.1,0.2-0.3,0.2-0.5,0.2H28.2z M32.3,25.5h4.2c2,0,3.5-0.6,4.4-1.8
	c0.9-1.2,1.4-3,1.4-5.5c0-1.4-0.1-2.6-0.4-3.5c-0.3-0.9-0.7-1.6-1.3-2.1c-0.6-0.5-1.3-0.9-2-1c-0.8-0.2-1.7-0.3-2.9-0.3h-3.3
	c-0.2,0-0.3,0.2-0.3,0.5v13.2C32,25.3,32.1,25.5,32.3,25.5z"/>
<path fill="#FFFFFF" d="M53.3,47.8c-0.2,0-0.4-0.1-0.5-0.2c-0.1-0.2-0.2-0.5-0.2-1V9c0-0.4,0-0.7,0.1-0.9c0.1-0.2,0.1-0.3,0.2-0.4
	c0.1,0,0.2-0.1,0.3-0.1h8.5c0.9,0,1.6,0,2.3,0.1c0.6,0,1.3,0.2,2.1,0.3c0.7,0.2,1.4,0.4,1.9,0.7c0.5,0.3,1,0.7,1.5,1.2
	c0.5,0.5,0.9,1.1,1.2,1.9c0.3,0.7,0.6,1.6,0.7,2.6c0.2,1,0.3,2.2,0.3,3.5c0,1.8-0.2,3.3-0.6,4.6c-0.4,1.2-0.9,2.1-1.5,2.7
	c-0.6,0.6-1.4,1.1-2.3,1.5c-0.1,0.1-0.1,0.1-0.1,0.2c0,0.1,0,0.1,0.1,0.1c0.6,0.3,1,0.5,1.3,0.7c0.3,0.2,0.7,0.5,1.1,1
	c0.4,0.4,0.8,0.9,1,1.5c0.2,0.5,0.5,1.3,0.7,2.2c0.2,0.9,0.3,2,0.3,3.2c0,1,0.1,4.5,0.1,10.6c0,1-0.2,1.4-0.6,1.4
	c-2.2,0-3.3,0-3.3,0c-0.4,0-0.5-0.5-0.5-1.4c0-0.2-0.1-2.2-0.1-6.2c-0.1-4-0.1-6.2-0.2-6.6c-0.1-3-1.7-4.6-4.6-4.6h-5
	c-0.2,0-0.3,0.2-0.3,0.5v17c0,0.5-0.1,0.8-0.2,1c-0.1,0.2-0.3,0.2-0.5,0.2H53.3z M57.4,25.5h4.2c2,0,3.5-0.6,4.4-1.8
	c0.9-1.2,1.4-3,1.4-5.5c0-1.4-0.1-2.6-0.4-3.5c-0.3-0.9-0.7-1.6-1.3-2.1s-1.3-0.9-2-1c-0.8-0.2-1.7-0.3-2.9-0.3h-3.3
	c-0.2,0-0.3,0.2-0.3,0.5v13.2C57.2,25.3,57.2,25.5,57.4,25.5z"/>
<path fill="#FFFFFF" d="M87.2,48.2c-1.5,0-2.8-0.2-3.8-0.5c-1-0.4-2-1-2.8-1.8c-0.8-0.9-1.5-2.1-2-3.7c-0.5-1.6-0.8-3.5-1.1-5.9
	c-0.3-2.4-0.4-5.3-0.4-8.7c0-4,0.2-7.4,0.6-10c0.4-2.6,1-4.7,1.8-6.2c0.9-1.5,1.9-2.6,3.1-3.2c1.2-0.6,2.7-0.9,4.6-0.9
	c1.9,0,3.4,0.3,4.6,0.9c1.2,0.6,2.2,1.6,3.1,3.2c0.9,1.5,1.5,3.6,1.8,6.2c0.4,2.6,0.6,6,0.6,10c0,3.4-0.1,6.3-0.4,8.7
	c-0.2,2.4-0.6,4.4-1.1,5.9c-0.5,1.6-1.1,2.8-2,3.7c-0.8,0.9-1.8,1.5-2.8,1.8C90,48,88.7,48.2,87.2,48.2z M87.2,44.6
	c1.5,0,2.6-0.4,3.4-1.3c0.8-0.9,1.3-2.6,1.7-5c0.4-2.4,0.6-6,0.6-10.7c0-4.5-0.2-7.9-0.5-10.2c-0.3-2.3-0.9-4-1.7-5
	c-0.8-1-1.9-1.4-3.4-1.4c-1.5,0-2.6,0.5-3.4,1.5c-0.8,1-1.4,2.7-1.7,5c-0.3,2.4-0.5,5.7-0.5,10c0,4.6,0.2,8.2,0.6,10.6
	c0.4,2.4,0.9,4.1,1.7,5C84.6,44.1,85.7,44.6,87.2,44.6z"/>
<path fill="#FFFFFF" d="M107.5,47.8c-0.5-0.1-0.8-0.7-0.9-1.9l-5.2-36.3c-0.1-0.3-0.1-0.6-0.1-0.8c0-0.7,0.1-1.1,0.4-1.1h2.8
	c0.5,0,0.8,0.6,1,1.9l3.6,26.7l4.3-26.5c0.2-1.1,0.5-1.7,1-1.7h2.5c0.5,0,0.8,0.6,1,1.7l4.7,27.2l3.5-27.4c0.2-1.3,0.5-1.9,0.9-1.9
	h2.5c0.3,0,0.4,0.4,0.4,1.1c0,0.3,0,0.5-0.1,0.8l-5,36.3c-0.2,1.2-0.5,1.8-0.9,1.9h-2.7c-0.5-0.1-0.8-0.7-1-1.9l-4.9-28.8l-4.7,28.8
	c-0.2,1.2-0.5,1.8-0.9,1.9H107.5z"/>
<path fill="#FFFFFF" d="M146.1,86.8V12.1c0-0.5-0.1-0.7-0.3-0.7h-4.9c-0.2,0-0.3,0-0.4,0c-0.1,0-0.1-0.1-0.2-0.3
	c-0.1-0.1-0.1-0.4-0.1-0.7V8.8c0-0.5,0.1-0.8,0.2-0.9c0.1-0.1,0.3-0.2,0.5-0.2h14.8c0.2,0,0.4,0.1,0.5,0.2c0.1,0.1,0.2,0.5,0.2,0.9
	v1.6c0,0.3,0,0.5-0.1,0.7c-0.1,0.1-0.1,0.2-0.2,0.3c-0.1,0-0.2,0-0.4,0h-4.8c-0.2,0-0.3,0.2-0.3,0.7v74.7l5.2-0.8l-7.3,6.8l-7.5-6.8
	L146.1,86.8z"/>
<path fill="#FFFFFF" d="M160.9,47.8c-0.2,0-0.4-0.1-0.5-0.2c-0.1-0.2-0.2-0.5-0.2-1.1V9c0-0.6,0.1-0.9,0.2-1.1
	c0.1-0.2,0.3-0.2,0.5-0.2h3.1c0.2,0,0.3,0,0.4,0.1c0.1,0,0.2,0.2,0.2,0.4c0.1,0.2,0.1,0.5,0.1,0.9v15.5c0,0.1,0,0.3,0.1,0.4
	c0.1,0.1,0.1,0.2,0.1,0.2h9.8c0.1,0,0.1-0.1,0.2-0.2s0.1-0.3,0.1-0.4V9c0-0.6,0.1-0.9,0.2-1.1c0.1-0.2,0.3-0.2,0.6-0.2h3.1
	c0.2,0,0.4,0.1,0.5,0.2c0.1,0.2,0.2,0.5,0.2,1.1v37.5c0,0.6-0.1,0.9-0.2,1.1c-0.1,0.2-0.3,0.2-0.5,0.2h-3.1c-0.3,0-0.5-0.1-0.6-0.2
	c-0.1-0.2-0.2-0.5-0.2-1.1V29.3c0-0.1,0-0.2-0.1-0.4c-0.1-0.1-0.1-0.2-0.2-0.2h-9.8c0,0-0.1,0.1-0.1,0.2c-0.1,0.1-0.1,0.2-0.1,0.3
	v17.2c0,0.5-0.1,0.9-0.2,1.1c-0.1,0.2-0.3,0.3-0.5,0.3H160.9z"/>
<path fill="#FFFFFF" d="M186.5,47.8c-0.2,0-0.4-0.1-0.5-0.2c-0.1-0.2-0.2-0.5-0.2-1V9c0-0.4,0-0.7,0.1-0.9c0.1-0.2,0.1-0.3,0.2-0.4
	c0.1,0,0.2-0.1,0.3-0.1h8.5c0.9,0,1.6,0,2.3,0.1c0.6,0,1.3,0.2,2.1,0.3c0.7,0.2,1.4,0.4,1.9,0.7c0.5,0.3,1,0.7,1.5,1.2
	c0.5,0.5,0.9,1.1,1.2,1.9c0.3,0.7,0.6,1.6,0.7,2.6c0.2,1,0.3,2.2,0.3,3.5c0,1.8-0.2,3.3-0.6,4.6c-0.4,1.2-0.9,2.1-1.5,2.7
	c-0.6,0.6-1.4,1.1-2.3,1.5c-0.1,0.1-0.1,0.1-0.1,0.2c0,0.1,0,0.1,0.1,0.1c0.6,0.3,1,0.5,1.3,0.7c0.3,0.2,0.7,0.5,1.1,1
	c0.4,0.4,0.8,0.9,1,1.5c0.2,0.5,0.5,1.3,0.7,2.2c0.2,0.9,0.3,2,0.3,3.2c0,1,0.1,4.5,0.1,10.6c0,1-0.2,1.4-0.6,1.4
	c-2.2,0-3.3,0-3.3,0c-0.4,0-0.5-0.5-0.5-1.4c0-0.2-0.1-2.2-0.1-6.2c-0.1-4-0.1-6.2-0.2-6.6c-0.1-3-1.7-4.6-4.6-4.6h-5
	c-0.2,0-0.3,0.2-0.3,0.5v17c0,0.5-0.1,0.8-0.2,1c-0.1,0.2-0.3,0.2-0.5,0.2H186.5z M190.5,25.5h4.2c2,0,3.5-0.6,4.4-1.8
	c0.9-1.2,1.4-3,1.4-5.5c0-1.4-0.1-2.6-0.4-3.5c-0.3-0.9-0.7-1.6-1.3-2.1c-0.6-0.5-1.3-0.9-2-1s-1.7-0.3-2.9-0.3h-3.3
	c-0.2,0-0.3,0.2-0.3,0.5v13.2C190.3,25.3,190.4,25.5,190.5,25.5z"/>
<path fill="#FFFFFF" d="M211.6,47.8c-0.1,0-0.3,0-0.3-0.1c-0.1,0-0.2-0.1-0.2-0.3c-0.1-0.2-0.1-0.4-0.1-0.7V8.8
	c0-0.4,0.1-0.7,0.2-0.9c0.1-0.1,0.3-0.2,0.5-0.2h13.9c0.1,0,0.3,0,0.3,0c0.1,0,0.2,0.1,0.2,0.3c0.1,0.2,0.1,0.4,0.1,0.7v1.6
	c0,0.3,0,0.5-0.1,0.7c-0.1,0.1-0.1,0.2-0.2,0.3s-0.2,0-0.4,0h-9.8c-0.2,0-0.3,0.3-0.3,0.9v12.7c0,0.1,0,0.3,0.1,0.4s0.1,0.2,0.1,0.2
	h8.2c0.2,0,0.4,0.1,0.5,0.2c0.1,0.1,0.2,0.4,0.2,0.9V28c0,0.4-0.1,0.7-0.2,0.9c-0.1,0.2-0.3,0.2-0.5,0.2h-8.1
	c-0.1,0-0.1,0.1-0.2,0.3c-0.1,0.2-0.1,0.3-0.1,0.5v14.3h10.2c0.2,0,0.3,0,0.4,0c0.1,0,0.1,0.1,0.2,0.3c0.1,0.1,0.1,0.4,0.1,0.7v1.6
	c0,0.4-0.1,0.7-0.2,0.8c-0.1,0.1-0.3,0.2-0.5,0.2H211.6z"/>
<path fill="#FFFFFF" d="M229.9,47.8c-0.3,0-0.4-0.3-0.4-0.8v-0.4c0-0.2,0-0.3,0-0.4l6.5-37c0.2-1,0.5-1.4,1-1.4h4.3
	c0.5,0,0.8,0.5,1,1.4l6.3,37c0,0.1,0,0.2,0.1,0.4c0,0.2,0.1,0.3,0.1,0.4c0,0.5-0.1,0.8-0.4,0.8H245c-0.5,0-0.8-0.4-0.9-1.3l-1.1-7.5
	c-0.1-0.3-0.2-0.5-0.3-0.5H235c-0.1,0-0.1,0.2-0.2,0.5l-1.3,7.5c-0.1,0.5-0.2,0.8-0.3,1c-0.1,0.2-0.3,0.3-0.5,0.3H229.9z
	 M235.8,35.6h6.5c0.1,0,0.1-0.1,0.1-0.4c0-0.1,0-0.2-0.1-0.2l-3.2-22.2l-0.1-0.2c-0.1,0-0.1,0-0.1,0.1l-3.5,22.1c0,0.1,0,0.2,0,0.3
	C235.5,35.5,235.6,35.6,235.8,35.6z"/>
<path fill="#FFFFFF" d="M253.9,47.8c-0.2,0-0.4-0.1-0.5-0.2c-0.1-0.1-0.2-0.5-0.2-0.9V8.7c0-0.4,0.1-0.7,0.2-0.8
	c0.1-0.1,0.3-0.2,0.5-0.2h9.1c1.3,0,2.5,0.2,3.6,0.6c1,0.4,2,1,2.8,2c0.9,0.9,1.6,2.1,2.1,3.6c0.6,1.5,1,3.4,1.3,5.7
	c0.3,2.3,0.5,4.9,0.5,8c0,2.5-0.1,4.8-0.2,6.7c-0.1,2-0.4,3.6-0.6,5.1c-0.3,1.4-0.6,2.6-1.1,3.6c-0.5,1-1,1.8-1.5,2.4
	c-0.5,0.6-1.2,1.1-2,1.5c-0.8,0.4-1.6,0.6-2.4,0.7c-0.8,0.1-1.8,0.2-2.9,0.2H253.9z M258.1,44.2h4.3c1.7,0,3-0.5,3.9-1.4
	c0.9-1,1.6-2.6,2-5c0.4-2.4,0.6-5.8,0.6-10.2c0-4-0.2-7.2-0.7-9.6s-1.2-4.1-2.1-5.1c-0.9-1-2.1-1.5-3.6-1.5h-4.4
	c-0.2,0-0.3,0.2-0.3,0.6v31.8C257.8,44,257.9,44.2,258.1,44.2z"/>
<path fill="#FFFFFF" d="M295.5,37c0,3.3-0.9,5.9-2.5,8c-1.7,2.1-4,3.1-6.8,3.1c-3.9,0-6.9-1.7-9.1-5.1c-0.1-0.1-0.1-0.3-0.1-0.6
	c0-0.5,0.2-1.1,0.7-1.7c0.5-0.6,0.9-0.9,1.3-0.9c0.2,0,0.3,0.1,0.4,0.2c2,2.8,4.3,4.2,6.8,4.2c1.6,0,2.9-0.6,3.8-1.9
	c0.9-1.3,1.4-2.9,1.4-4.9c0-1.8-0.3-3.2-1-4.2c-0.7-1-1.7-2-3.1-3l-3.7-2.5c-0.8-0.5-1.4-1-2-1.5c-0.6-0.5-1.1-1.2-1.7-2
	c-0.6-0.8-1-1.7-1.3-2.8c-0.3-1.1-0.5-2.3-0.5-3.6c0-3.2,0.8-5.8,2.4-7.7c1.6-2,3.7-3,6.4-3c3.3,0,6,1.2,7.9,3.7
	c0.2,0.2,0.3,0.5,0.3,0.8c0,0.6-0.2,1.1-0.7,1.7c-0.5,0.6-0.8,0.8-1.2,0.8c-0.1,0-0.2,0-0.3-0.1c-1.6-2-3.4-2.9-5.5-2.9
	c-1.5,0-2.7,0.6-3.7,1.8c-0.9,1.2-1.4,2.7-1.4,4.4c0,1.1,0.2,2.1,0.6,3c0.4,0.9,0.8,1.6,1.3,2.1c0.5,0.5,1.2,1,2,1.5l3.7,2.4
	C293.6,28.9,295.5,32.4,295.5,37z"/>
</svg>
